<svg xmlns="http://www.w3.org/2000/svg" xmlns:xlink="http://www.w3.org/1999/xlink" width="990" zoomAndPan="magnify" viewBox="0 0 742.5 303.749993" height="405" preserveAspectRatio="xMidYMid meet" version="1.0"><path fill="#ffffff" d="M 4.367188 241.269531 L 47.574219 53.832031 L 85.113281 53.832031 L 49.320312 209.410156 L 87.949219 209.410156 L 80.523438 241.269531 Z M 4.367188 241.269531 " fill-opacity="1" fill-rule="nonzero"/><path fill="#ffffff" d="M 85.984375 241.269531 L 147.292969 53.832031 L 210.789062 53.832031 L 185.488281 241.269531 L 149.914062 241.269531 L 154.28125 210.945312 L 131.589844 210.945312 L 122.421875 241.269531 Z M 141.402344 181.039062 L 158.429688 181.039062 L 171.953125 85.691406 L 170.207031 85.691406 Z M 141.402344 181.039062 " fill-opacity="1" fill-rule="nonzero"/><path fill="#ffffff" d="M 240.03125 243.015625 C 224.613281 243.015625 214.175781 238.652344 208.71875 229.925781 C 203.261719 221.199219 202.5 208.25 206.425781 191.085938 L 238.0625 53.832031 L 274.511719 53.832031 L 243.085938 189.550781 C 241.773438 195.515625 241.296875 200.171875 241.65625 203.519531 C 242.023438 206.871094 244.097656 208.542969 247.886719 208.542969 C 251.671875 208.542969 254.542969 206.910156 256.503906 203.636719 C 258.472656 200.359375 260.105469 195.664062 261.410156 189.550781 L 292.839844 53.832031 L 329.277344 53.832031 L 297.640625 191.085938 C 293.710938 208.25 286.984375 221.199219 277.453125 229.925781 C 267.925781 238.652344 255.453125 243.015625 240.03125 243.015625 Z M 240.03125 243.015625 " fill-opacity="1" fill-rule="nonzero"/><path fill="#ffffff" d="M 300.25 241.269531 L 343.457031 53.832031 L 382.085938 53.832031 L 378.597656 143.511719 L 399.324219 53.832031 L 435.550781 53.832031 L 392.34375 241.269531 L 355.683594 241.269531 L 358.515625 147.445312 L 336.914062 241.269531 Z M 300.25 241.269531 " fill-opacity="1" fill-rule="nonzero"/><path fill="#ffffff" d="M 452.125 53.832031 L 503.84375 53.832031 C 517.21875 53.832031 526.421875 57.542969 531.441406 64.964844 C 536.457031 72.382812 537.367188 83.363281 534.167969 97.902344 L 514.3125 185.628906 C 510.09375 204.105469 503.660156 218 495.003906 227.3125 C 486.34375 236.617188 474.453125 241.269531 459.324219 241.269531 L 408.917969 241.269531 Z M 460.859375 208.097656 C 467.6875 208.097656 471.902344 204.753906 473.503906 198.0625 L 495.761719 101.394531 C 496.785156 97.179688 497.1875 94.015625 496.96875 91.910156 C 496.75 89.796875 495.875 88.371094 494.347656 87.648438 C 492.824219 86.921875 490.242188 86.558594 486.605469 86.558594 L 482.460938 86.558594 L 454.300781 208.097656 Z M 460.859375 208.097656 " fill-opacity="1" fill-rule="nonzero"/><path fill="#ffffff" d="M 559.699219 53.832031 L 617.304688 53.832031 C 626.46875 53.832031 633.089844 55.902344 637.164062 60.046875 C 641.238281 64.195312 643.277344 70.011719 643.277344 77.507812 C 643.277344 84.996094 641.964844 94.554688 639.34375 106.195312 C 636.867188 116.820312 633.558594 125.113281 629.414062 131.074219 C 625.269531 137.042969 619.488281 141.1875 612.074219 143.511719 C 617.449219 144.675781 620.902344 147.511719 622.433594 152.023438 C 623.964844 156.539062 623.855469 162.644531 622.105469 170.347656 L 605.304688 241.269531 L 568.644531 241.269531 L 585.445312 167.949219 C 586.757812 162.710938 586.539062 159.367188 584.789062 157.914062 C 583.046875 156.460938 579.484375 155.734375 574.101562 155.734375 L 554.464844 241.269531 L 516.492188 241.269531 Z M 590.902344 123.21875 C 596.140625 123.21875 600.066406 117.546875 602.683594 106.195312 C 603.851562 101.253906 604.472656 97.546875 604.542969 95.070312 C 604.613281 92.597656 604.175781 90.886719 603.230469 89.941406 C 602.285156 89 600.71875 88.523438 598.535156 88.523438 L 589.8125 88.523438 L 581.957031 123.21875 Z M 590.902344 123.21875 " fill-opacity="1" fill-rule="nonzero"/><path fill="#ffffff" d="M 618.828125 241.269531 L 662.035156 53.832031 L 698.265625 53.832031 L 655.058594 241.269531 Z M 618.828125 241.269531 " fill-opacity="1" fill-rule="nonzero"/><path fill="#ffffff" d="M 685.375 241.269531 L 692.796875 209.410156 L 730.980469 209.410156 L 723.570312 241.269531 Z M 685.375 241.269531 " fill-opacity="1" fill-rule="nonzero"/></svg>